<?xml version="1.0" standalone="no"?>
<!DOCTYPE svg PUBLIC "-//W3C//DTD SVG 20010904//EN"
 "http://www.w3.org/TR/2001/REC-SVG-20010904/DTD/svg10.dtd">
<svg version="1.0" xmlns="http://www.w3.org/2000/svg"
 width="626.000000pt" height="626.000000pt" viewBox="0 0 626.000000 626.000000"
 preserveAspectRatio="xMidYMid meet">

<g transform="translate(0.000000,626.000000) scale(0.100000,-0.100000)"
fill="#000000" stroke="none">
<path d="M2930 5981 c-685 -58 -1317 -350 -1806 -836 -442 -439 -719 -985
-816 -1608 -18 -118 -22 -186 -22 -397 -1 -269 7 -353 51 -564 56 -268 133
-488 257 -733 172 -340 388 -614 681 -868 433 -374 941 -599 1515 -670 146
-18 484 -20 628 -4 466 51 916 216 1312 480 119 79 317 244 435 363 432 434
713 1026 790 1666 19 159 19 477 0 640 -82 698 -410 1334 -930 1803 -426 384
-939 625 -1500 706 -159 23 -451 34 -595 22z m-163 -1684 c161 -123 401 -246
619 -320 119 -40 302 -82 312 -72 2 1 -22 17 -52 34 -86 50 -322 238 -311 249
2 2 23 -10 47 -26 156 -107 544 -268 776 -322 l52 -12 0 -88 0 -87 51 -6 c133
-16 239 -141 239 -283 0 -156 -134 -304 -274 -304 l-51 0 -33 -107 c-42 -135
-87 -230 -162 -341 -101 -150 -245 -292 -372 -366 l-48 -28 0 -183 0 -183 -44
-49 c-107 -118 -334 -183 -501 -142 -70 17 -189 80 -262 139 l-63 51 0 188 0
188 -66 43 c-136 88 -310 276 -408 443 -40 68 -116 234 -116 253 0 5 -5 25
-10 45 -10 35 -12 36 -64 42 -242 25 -368 299 -223 489 39 50 124 98 191 105
42 5 46 8 50 37 25 179 34 203 100 275 101 110 253 329 336 484 l42 78 92 -88
c50 -49 119 -110 153 -136z m-272 -2077 c-3 -5 -12 -10 -18 -10 -7 0 -6 4 3
10 19 12 23 12 15 0z m479 -711 c39 -31 34 -74 -11 -98 -40 -21 -83 9 -83 59
0 17 43 60 60 60 4 0 19 -9 34 -21z m386 1 c11 -11 20 -30 20 -42 0 -27 -37
-68 -62 -68 -23 0 -68 43 -68 65 0 23 45 65 70 65 11 0 29 -9 40 -20z"/>
<path d="M2428 3877 c-60 -17 -113 -58 -138 -107 -27 -54 -25 -68 5 -31 61 71
211 85 407 38 59 -15 114 -24 123 -21 8 4 18 18 22 32 4 19 1 30 -16 43 -52
42 -312 72 -403 46z"/>
<path d="M3633 3880 c-81 -9 -170 -35 -196 -58 -25 -22 -19 -66 10 -70 12 -2
59 9 105 23 57 19 115 29 185 32 126 7 175 -8 228 -70 l36 -41 -16 44 c-41
117 -155 162 -352 140z"/>
<path d="M2513 3620 c-65 -39 -87 -110 -59 -185 42 -108 178 -135 262 -51 65
65 49 186 -30 236 -44 27 -129 27 -173 0z m85 -92 c2 -15 -5 -31 -18 -43 -20
-18 -24 -18 -48 -4 -20 11 -27 23 -27 44 0 61 86 64 93 3z"/>
<path d="M3584 3626 c-65 -29 -106 -117 -86 -185 31 -100 129 -148 225 -107
47 19 97 80 98 119 3 83 -13 123 -63 158 -39 28 -128 36 -174 15z m70 -62 c22
-21 20 -50 -4 -74 -24 -24 -29 -24 -58 -4 -24 17 -30 62 -10 82 17 17 54 15
72 -4z"/>
<path d="M2001 3534 c0 -11 3 -14 6 -6 3 7 2 16 -1 19 -3 4 -6 -2 -5 -13z"/>
</g>
</svg>
